/* XPM */
static char * bitcoin32_xpm[] = {
"32 32 202 2",
"  	c None",
". 	c #000000",
"+ 	c #050400",
"@ 	c #0D0B00",
"# 	c #0D0C00",
"$ 	c #030300",
"% 	c #3B3200",
"& 	c #685900",
"* 	c #947D00",
"= 	c #907A00",
"- 	c #8B7600",
"; 	c #8C7700",
"> 	c #927C00",
", 	c #5F5100",
"' 	c #302900",
") 	c #080700",
"! 	c #463C00",
"~ 	c #746200",
"{ 	c #8D7800",
"] 	c #847000",
"^ 	c #8F7900",
"/ 	c #423800",
"( 	c #282200",
"_ 	c #6B5B00",
": 	c #141100",
"< 	c #120F00",
"[ 	c #3F3600",
"} 	c #897400",
"| 	c #877200",
"1 	c #857000",
"2 	c #836F00",
"3 	c #121000",
"4 	c #4B4000",
"5 	c #917B00",
"6 	c #0D0900",
"7 	c #B5B100",
"8 	c #2A2200",
"9 	c #352D00",
"0 	c #7D6A00",
"a 	c #231E00",
"b 	c #645500",
"c 	c #8E7800",
"d 	c #837000",
"e 	c #221D00",
"f 	c #4A3F00",
"g 	c #867200",
"h 	c #695800",
"i 	c #948E00",
"j 	c #141200",
"k 	c #211C00",
"l 	c #262000",
"m 	c #322A00",
"n 	c #010100",
"o 	c #110E00",
"p 	c #615300",
"q 	c #1E1A00",
"r 	c #272000",
"s 	c #8A7500",
"t 	c #161100",
"u 	c #E7E000",
"v 	c #393100",
"w 	c #2A2300",
"x 	c #302800",
"y 	c #473C00",
"z 	c #867100",
"A 	c #0C0A00",
"B 	c #8D7700",
"C 	c #766400",
"D 	c #A5A000",
"E 	c #474400",
"F 	c #312900",
"G 	c #201B00",
"H 	c #2B2400",
"I 	c #1A1600",
"J 	c #776500",
"K 	c #504400",
"L 	c #251F00",
"M 	c #7E7A00",
"N 	c #141500",
"O 	c #181A00",
"P 	c #1D1E00",
"Q 	c #131000",
"R 	c #564900",
"S 	c #857100",
"T 	c #2D2700",
"U 	c #927D00",
"V 	c #2B2A00",
"W 	c #382F00",
"X 	c #121300",
"Y 	c #090A00",
"Z 	c #1D1F00",
"` 	c #060500",
" .	c #4C4000",
"..	c #372E00",
"+.	c #453B00",
"@.	c #332B00",
"#.	c #050500",
"$.	c #1F2100",
"%.	c #4D4200",
"&.	c #655600",
"*.	c #040300",
"=.	c #3C3300",
"-.	c #181900",
";.	c #171900",
">.	c #1C1D00",
",.	c #080800",
"'.	c #161800",
").	c #352C00",
"!.	c #1F1B00",
"~.	c #463B00",
"{.	c #1F1A00",
"].	c #010200",
"^.	c #242700",
"/.	c #0B0C00",
"(.	c #040500",
"_.	c #020200",
":.	c #514900",
"<.	c #433900",
"[.	c #937C00",
"}.	c #897500",
"|.	c #736100",
"1.	c #292300",
"2.	c #191B00",
"3.	c #060600",
"4.	c #383000",
"5.	c #858400",
"6.	c #090700",
"7.	c #8E7900",
"8.	c #7F6C00",
"9.	c #312A00",
"0.	c #0F1000",
"a.	c #161700",
"b.	c #000100",
"c.	c #5B5200",
"d.	c #A6A000",
"e.	c #372D00",
"f.	c #0B0A00",
"g.	c #0E0F00",
"h.	c #362E00",
"i.	c #696700",
"j.	c #373500",
"k.	c #8B7500",
"l.	c #937D00",
"m.	c #272100",
"n.	c #2B2500",
"o.	c #070600",
"p.	c #231B00",
"q.	c #FFFF00",
"r.	c #241D00",
"s.	c #8A7600",
"t.	c #806C00",
"u.	c #322B00",
"v.	c #646200",
"w.	c #816D00",
"x.	c #5D4F00",
"y.	c #605200",
"z.	c #574A00",
"A.	c #0F0D00",
"B.	c #292800",
"C.	c #2E2800",
"D.	c #3B3300",
"E.	c #847100",
"F.	c #483D00",
"G.	c #191600",
"H.	c #201C00",
"I.	c #796700",
"J.	c #3E3500",
"K.	c #7F6B00",
"L.	c #584A00",
"M.	c #685800",
"N.	c #726100",
"O.	c #887300",
"P.	c #877300",
"Q.	c #6A5A00",
"R.	c #181400",
"S.	c #8F7A00",
"T.	c #2F2800",
"U.	c #8C7600",
"V.	c #544800",
"W.	c #816E00",
"X.	c #524600",
"Y.	c #362D00",
"Z.	c #342C00",
"`.	c #453A00",
" +	c #998200",
".+	c #0F0C00",
"++	c #231D00",
"@+	c #625300",
"#+	c #7C6900",
"$+	c #3A3100",
"%+	c #2D2600",
"&+	c #6C5C00",
"*+	c #7E6B00",
"=+	c #7C6A00",
"-+	c #826E00",
";+	c #716000",
">+	c #3F3500",
",+	c #020100",
"'+	c #2C2500",
")+	c #4D4100",
"!+	c #978000",
"~+	c #6F5E00",
"                        . . . . . . . .                         ",
"                  . . . . . + @ # . . . . . .                   ",
"              . . . $ % & * = - ; > ; , ' . . . .               ",
"            . . ) ! ~ { ] ] ] ] ] ] ] ] ] ^ / . . .             ",
"          . . ( _ . : < [ } ] ] ] | 1 ] ] ] ] 2 3 . .           ",
"        . . 4 5 6 7 8 . . . 9 2 0 a 9 b c d ] ] = e . .         ",
"      . . f g h i j k . . . . . l m n . o p g ] ] ^ q . .       ",
"    . . r s g t u v . . . . . . . . w x ) . y z ] ] ^ A .       ",
"    . $ B ] C D E F . . . . . . . . n . G H I c ] ] ] J . .     ",
"  . . K 2 ] L M H . . . . . . . . N O P . . Q R = ] ] S T .     ",
"  . n U ] s V . W . . . . . . . X Y . Z . . . . `  .^ ] 0 . .   ",
"  . ..] d +.. @.. . . . . . . #.Z . . $.. . . . . . . %.= : .   ",
". . &.] ] { *.=.. . . . n   -.;.>.  ,.'.. . . . . . . ).!.~..   ",
". . ^ ] ] ] - {.. . . ].^.. . /.,..   (.. . . . . . _.:.. <.. . ",
". . [.] ] ] ] }.|.1.. . ;.2.3.,.P   .   . . . . . . 4.5.6.7.. . ",
". @ { ] ] ] ] ] ] g 8.9.. n 0.X   . . a.b.. . . . . c.d.e.; . . ",
". f.{ ] ] ] ] ] ] ] ] S |.9.. . _.  b.g.3.. . . . h.i.j.k.; . . ",
". . l.] ] ] ] ] ] ] ] g m.. n.m o.. >.  . . . . . p.q.r.] 0 . . ",
". . s.] ] ] ] ] ] ] ] t.. . . . e ~.+ . . . . . u.. v.w.] x.. . ",
". . y.] ] ] ] ] ] ] ] @.. . . . *.= = z.A.. . . ..B.C.S ] D..   ",
"  . 9.E.] ] ] ] ] ] - . . . . . F.] ] ] c b G.H.+ . I.] 7.@ .   ",
"  . . 5 ] ] ] ] ] ] J.. . . . . 7.] ] ] ] ] s K.L.M.g ] N.. .   ",
"  . . ~.d ] ] ] ] = . . . . . =.] ] ] ] ] ] ] ] ] ] ] O.e .     ",
"    . . | ] ] ] d f . . . . . P.] ] ] ] ] ] ] ] ] ] 2 Q.. .     ",
"    . . R.S.] ] 5 ` . . . . T.l.^ U.U.- { ; l.2 ] ] s + .       ",
"      . . T.; ] V.. . . . . W.4.X.Y./ J.Z.`.C.B ] { Q . .       ",
"        . . T  +.+. . . . ++O.@+#+Z.y $+W y %+5 s Q . .         ",
"          . . R.<.. . . . &+] W.d *+*+w.=+0 -+;+o.. .           ",
"            . . . >+v ,+Q ; ] ] ] ] ] 2 } t.'+. . .             ",
"              . . . . 9.)+J l.!+!+= ~+f G.. . .                 ",
"                  . . . . . . . . . . . . .                     ",
"                        . . . . . . . .                         "};
