/* XPM */
static char * bitcoin64_xpm[] = {
"64 64 517 2",
"  	c None",
". 	c #7C0005",
"+ 	c #780005",
"@ 	c #480003",
"# 	c #820006",
"$ 	c #AC0008",
"% 	c #000102",
"& 	c #000002",
"* 	c #000001",
"= 	c #460003",
"- 	c #930006",
"; 	c #A70007",
"> 	c #000101",
", 	c #450003",
"' 	c #9D0007",
") 	c #A40007",
"! 	c #010201",
"~ 	c #241A00",
"{ 	c #453201",
"] 	c #563E00",
"^ 	c #624600",
"/ 	c #624700",
"( 	c #594000",
"_ 	c #483401",
": 	c #2B1F00",
"< 	c #050401",
"[ 	c #090001",
"} 	c #470004",
"| 	c #4B0003",
"1 	c #1A1301",
"2 	c #634800",
"3 	c #B17F00",
"4 	c #DEA000",
"5 	c #D89B00",
"6 	c #CD9300",
"7 	c #CC9300",
"8 	c #CB9200",
"9 	c #D59900",
"0 	c #E1A200",
"a 	c #BB8700",
"b 	c #705100",
"c 	c #271B01",
"d 	c #210102",
"e 	c #440003",
"f 	c #570004",
"g 	c #A80007",
"h 	c #A30007",
"i 	c #B70008",
"j 	c #3B2A00",
"k 	c #A87900",
"l 	c #DC9F00",
"m 	c #CA9100",
"n 	c #DC9D00",
"o 	c #671E02",
"p 	c #3E0003",
"q 	c #670004",
"r 	c #A90007",
"s 	c #8A0006",
"t 	c #251B00",
"u 	c #B68400",
"v 	c #D19600",
"w 	c #CE9800",
"x 	c #B06C01",
"y 	c #470203",
"z 	c #3C0003",
"A 	c #A10007",
"B 	c #020102",
"C 	c #765600",
"D 	c #D99C00",
"E 	c #CB9100",
"F 	c #D49B00",
"G 	c #7B3402",
"H 	c #3C0004",
"I 	c #890006",
"J 	c #A60007",
"K 	c #945500",
"L 	c #050301",
"M 	c #0A0801",
"N 	c #B78400",
"O 	c #CB9400",
"P 	c #C18000",
"Q 	c #510C03",
"R 	c #400003",
"S 	c #960007",
"T 	c #A30008",
"U 	c #BD5101",
"V 	c #CA9300",
"W 	c #181201",
"X 	c #120D01",
"Y 	c #CD9400",
"Z 	c #D49D00",
"` 	c #914B01",
" .	c #3D0004",
"..	c #420003",
"+.	c #9F0007",
"@.	c #B32804",
"#.	c #CC9A00",
"$.	c #281D00",
"%.	c #110C01",
"&.	c #CF9500",
"*.	c #CA9200",
"=.	c #CD9000",
"-.	c #601703",
";.	c #3D0003",
">.	c #410003",
",.	c #4E0003",
"'.	c #A50007",
").	c #AA0D06",
"!.	c #CD9B00",
"~.	c #D99D00",
"{.	c #040301",
"].	c #C58F00",
"^.	c #D19B00",
"/.	c #A66101",
"(.	c #430003",
"_.	c #5F0004",
":.	c #CA8C00",
"<.	c #CE9200",
"[.	c #CF9401",
"}.	c #D69A00",
"|.	c #140F01",
"1.	c #9F7300",
"2.	c #D49A00",
"3.	c #702902",
"4.	c #3F0003",
"5.	c #4B0004",
"6.	c #7D0006",
"7.	c #970007",
"8.	c #A20007",
"9.	c #C46C01",
"0.	c #D89500",
"a.	c #0B55A2",
"b.	c #997D1A",
"c.	c #C99200",
"d.	c #C18C00",
"e.	c #513A00",
"f.	c #CC9400",
"g.	c #B97800",
"h.	c #4B0604",
"i.	c #6D0005",
"j.	c #880006",
"k.	c #830006",
"l.	c #BA4202",
"m.	c #D39900",
"n.	c #3B616B",
"o.	c #005CBE",
"p.	c #0056B8",
"q.	c #D09300",
"r.	c #7B5900",
"s.	c #080601",
"t.	c #D59C00",
"u.	c #873F01",
"v.	c #5B0004",
"w.	c #850006",
"x.	c #840006",
"y.	c #AF1B05",
"z.	c #CE9D00",
"A.	c #807531",
"B.	c #005BC4",
"C.	c #005CBF",
"D.	c #004FA5",
"E.	c #204767",
"F.	c #D99900",
"G.	c #DB9E00",
"H.	c #201801",
"I.	c #7D5A00",
"J.	c #C88900",
"K.	c #581003",
"L.	c #7C0006",
"M.	c #8E0007",
"N.	c #A70607",
"O.	c #CB9700",
"P.	c #B4880D",
"Q.	c #0056C1",
"R.	c #004895",
"S.	c #003E82",
"T.	c #004088",
"U.	c #646332",
"V.	c #0B0801",
"W.	c #D29B00",
"X.	c #9C5601",
"Y.	c #6C0005",
"Z.	c #970006",
"`.	c #C88100",
" +	c #D39100",
".+	c #0156B0",
"++	c #0059B8",
"@+	c #004288",
"#+	c #003F84",
"$+	c #003B8A",
"%+	c #AF8309",
"&+	c #D79B00",
"*+	c #2A1F00",
"=+	c #674B00",
"-+	c #D19500",
";+	c #692003",
">+	c #380003",
",+	c #5A0004",
"'+	c #860006",
")+	c #A20008",
"!+	c #C05D02",
"~+	c #D79700",
"{+	c #1D5C8F",
"]+	c #0053AC",
"^+	c #003F83",
"/+	c #033E7D",
"(+	c #D69500",
"_+	c #936B00",
":+	c #CD9600",
"<+	c #B06D00",
"[+	c #450303",
"}+	c #7B0005",
"|+	c #B53203",
"1+	c #D19A00",
"2+	c #546955",
"3+	c #004CA2",
"4+	c #003E81",
"5+	c #2B4C59",
"6+	c #D79800",
"7+	c #DC9E00",
"8+	c #060501",
"9+	c #241A01",
"0+	c #7D3502",
"a+	c #390004",
"b+	c #6B0005",
"c+	c #8F0006",
"d+	c #AC1206",
"e+	c #CE9C00",
"f+	c #897729",
"g+	c #00439E",
"h+	c #003F8D",
"i+	c #00408D",
"j+	c #003F93",
"k+	c #6C6630",
"l+	c #CC9200",
"m+	c #483400",
"n+	c #5E4400",
"o+	c #4E0B03",
"p+	c #560004",
"q+	c #9B0106",
"r+	c #AD8100",
"s+	c #A67B00",
"t+	c #A97F00",
"u+	c #866100",
"v+	c #956B00",
"w+	c #D39E00",
"x+	c #904A01",
"y+	c #450004",
"z+	c #7A0005",
"A+	c #870006",
"B+	c #8A0007",
"C+	c #750005",
"D+	c #AF2404",
"E+	c #B43805",
"F+	c #B43905",
"G+	c #B53905",
"H+	c #B73905",
"I+	c #AD3305",
"J+	c #190003",
"K+	c #C38D00",
"L+	c #5F1803",
"M+	c #660005",
"N+	c #5D0004",
"O+	c #4C0003",
"P+	c #AB0008",
"Q+	c #990006",
"R+	c #900006",
"S+	c #840007",
"T+	c #C06301",
"U+	c #010601",
"V+	c #E4A400",
"W+	c #D19900",
"X+	c #A16000",
"Y+	c #6C0004",
"Z+	c #5F0003",
"`+	c #4D0003",
" @	c #510003",
".@	c #530003",
"+@	c #5A0003",
"@@	c #810006",
"#@	c #8A0806",
"$@	c #C68100",
"%@	c #191201",
"&@	c #070601",
"*@	c #7B2902",
"=@	c #740006",
"-@	c #500003",
";@	c #550003",
">@	c #560003",
",@	c #810005",
"'@	c #960006",
")@	c #8D0006",
"!@	c #820007",
"~@	c #971D04",
"{@	c #CF9700",
"]@	c #0F0C01",
"^@	c #DFA300",
"/@	c #B87700",
"(@	c #740605",
"_@	c #790005",
":@	c #6B0004",
"<@	c #520003",
"[@	c #810007",
"}@	c #AB4302",
"|@	c #CF9B00",
"1@	c #D39800",
"2@	c #342600",
"3@	c #0B0D01",
"4@	c #B24B02",
"5@	c #6A0005",
"6@	c #5B0003",
"7@	c #520004",
"8@	c #4F0002",
"9@	c #BE6D01",
"0@	c #CC9600",
"a@	c #322400",
"b@	c #270002",
"c@	c #A74702",
"d@	c #8C4201",
"e@	c #924301",
"f@	c #954301",
"g@	c #944301",
"h@	c #944201",
"i@	c #954600",
"j@	c #954500",
"k@	c #944500",
"l@	c #974701",
"m@	c #994901",
"n@	c #994200",
"o@	c #610004",
"p@	c #9A0007",
"q@	c #8F0F05",
"r@	c #CB8E00",
"s@	c #261C00",
"t@	c #DFA100",
"u@	c #B28303",
"v@	c #B58400",
"w@	c #A77F05",
"x@	c #98790F",
"y@	c #8A7417",
"z@	c #807324",
"A@	c #7A7230",
"B@	c #74723A",
"C@	c #747344",
"D@	c #73744F",
"E@	c #71714B",
"F@	c #A37F12",
"G@	c #721F03",
"H@	c #9F2C03",
"I@	c #D09D00",
"J@	c #161001",
"K@	c #B98600",
"L@	c #D29500",
"M@	c #225E8D",
"N@	c #005DCA",
"O@	c #005CCA",
"P@	c #005CC8",
"Q@	c #005DC6",
"R@	c #005DC4",
"S@	c #005EC5",
"T@	c #005EC4",
"U@	c #0056B5",
"V@	c #004DA1",
"W@	c #00438B",
"X@	c #083E76",
"Y@	c #D79600",
"Z@	c #A45E01",
"`@	c #4F0003",
" #	c #770005",
".#	c #830007",
"+#	c #B35701",
"@#	c #CE9A00",
"##	c #886200",
"$#	c #D59400",
"%#	c #155AA0",
"&#	c #005BBB",
"*#	c #005DBF",
"=#	c #005AB9",
"-#	c #0050A6",
";#	c #004693",
">#	c #003989",
",#	c #B48608",
"'#	c #640004",
")#	c #890606",
"!#	c #C47E00",
"~#	c #513B00",
"{#	c #CC9000",
"]#	c #004A9A",
"^#	c #00428A",
"/#	c #003D80",
"(#	c #646231",
"_#	c #752602",
":#	c #951A05",
"<#	c #CD9500",
"[#	c #775600",
"}#	c #150F01",
"|#	c #DA9D00",
"1#	c #B3860C",
"2#	c #003A87",
"3#	c #174467",
"4#	c #DA9900",
"5#	c #AA6900",
"6#	c #890007",
"7#	c #A73F03",
"8#	c #CF9D00",
"9#	c #D29700",
"0#	c #392900",
"a#	c #86701C",
"b#	c #003D8B",
"c#	c #003B85",
"d#	c #CA8F00",
"e#	c #570503",
"f#	c #740005",
"g#	c #BB6A01",
"h#	c #CD9700",
"i#	c #523B00",
"j#	c #D29600",
"k#	c #515B38",
"l#	c #003F8B",
"m#	c #89711C",
"n#	c #7D3302",
"o#	c #620004",
"p#	c #8D0D05",
"q#	c #CB8B00",
"r#	c #795700",
"s#	c #254B61",
"t#	c #014084",
"u#	c #345053",
"v#	c #B67900",
"w#	c #4E0004",
"x#	c #9D2A03",
"y#	c #D09A00",
"z#	c #184266",
"A#	c #D39D00",
"B#	c #5E0E03",
"C#	c #800006",
"D#	c #B25402",
"E#	c #CE9900",
"F#	c #876200",
"G#	c #C79000",
"H#	c #D49700",
"I#	c #8E4701",
"J#	c #500004",
"K#	c #710005",
"L#	c #880406",
"M#	c #C37B00",
"N#	c #CB9300",
"O#	c #0C0901",
"P#	c #2D2100",
"Q#	c #C68B00",
"R#	c #4F0004",
"S#	c #931805",
"T#	c #CE9500",
"U#	c #543D00",
"V#	c #735300",
"W#	c #D39C00",
"X#	c #6B1C03",
"Y#	c #540003",
"Z#	c #A73D02",
"`#	c #D09E00",
" $	c #9E7200",
".$	c #A57700",
"+$	c #A36001",
"@$	c #7E0005",
"#$	c #BA6901",
"$$	c #C28C00",
"%$	c #030201",
"&$	c #B38100",
"*$	c #550303",
"=$	c #6E0004",
"-$	c #8D0D06",
";$	c #C98900",
">$	c #010102",
",$	c #AA7A00",
"'$	c #803302",
")$	c #5D0003",
"!$	c #880007",
"~$	c #9D2803",
"{$	c #CF9A00",
"]$	c #C38C00",
"^$	c #0D0A01",
"/$	c #754B00",
"($	c #B25302",
"_$	c #CE9B00",
":$	c #CE9400",
"<$	c #A37500",
"[$	c #030301",
"}$	c #880306",
"|$	c #C37B01",
"1$	c #5A4000",
"2$	c #250002",
"3$	c #941704",
"4$	c #8F6600",
"5$	c #8B0007",
"6$	c #6D5600",
"7$	c #D49900",
"8$	c #7F5C00",
"9$	c #1B1401",
"0$	c #250102",
"a$	c #332501",
"b$	c #725200",
"c$	c #B28100",
"d$	c #DDA000",
"e$	c #D89C00",
"f$	c #BE8A00",
"g$	c #7C5A00",
"h$	c #3E2D00",
"i$	c #760005",
"j$	c #251A01",
"k$	c #2F2201",
"l$	c #302301",
"m$	c #271D01",
"n$	c #181101",
"o$	c #8C0006",
"p$	c #6B0003",
"q$	c #830005",
"r$	c #8F0007",
"                                                                                                                                ",
"                                                                                                                                ",
"                                                                                                                                ",
"                                                                                                                                ",
"                                                                                                                                ",
"                                                                                                  .                             ",
"                                                                                                +                               ",
"                                                                                            @ # $                               ",
"                                                  % & * * % & & % * * * & *               = - ;                                 ",
"                                            > * % % % % % % & & % % % % % % * > *       , ' )                                   ",
"                                      * % % % % & & ! ~ { ] ^ / ( _ : < * & % % % [ } | ) )                                     ",
"                                    % % % % & 1 2 3 4 5 6 7 8 8 8 7 9 0 a b c & d e f g h i                                     ",
"                                > % % % & j k l 8 8 8 8 8 8 8 8 8 8 8 8 8 m n o p q r h s >                                     ",
"                              > % % & t u v 8 8 8 8 8 8 8 8 8 8 8 8 8 8 w x y z + g ) A B % *                                   ",
"                            * % % & C D 8 8 8 8 8 8 8 8 8 8 8 8 8 8 E F G H z I J ) h K L % % >                                 ",
"                          * % % M N 8 8 8 8 8 8 8 8 8 8 8 8 8 8 8 O P Q R R S ) ) T U V 8 W % % %                               ",
"                        * % % X Y m 8 8 8 8 8 8 8 8 8 8 8 8 8 8 Z `  ..., +.) ) h @.#.8 8 5 $.& % *                             ",
"                      % % % %.&.*.8 8 8 8 8 8 8 8 8 8 8 8 8 m =.-.;.>.,.'.) ) ) ).!.8 8 8 8 ~.t % % *                           ",
"                    & % % {.].m 8 8 8 8 8 8 8 8 8 8 8 8 8 ^./.(.>.;._.r ) ) ) ) :.<.[.8 8 8 8 }.|.% % *                         ",
"                    > % & 1.m 8 8 8 8 8 8 8 8 8 8 8 8 m 2.3.z 4.5.6.7.) ) ) 8.9.0.a.b.c.8 8 8 m d.& % %                         ",
"                  * % & e.v 8 8 8 8 8 8 8 8 8 8 8 8 f.g.h.R R i.j.k.+.) ) T l.m.n.o.p.q.8 8 8 8 *.r.& % *                       ",
"                  % % s.D 8 8 8 8 8 8 8 8 8 8 8 8 t.u.z ;.v.w.x.x.# ; ) ) y.z.A.B.C.D.E.F.8 8 8 8 G.H.% %                       ",
"                & % & I.m 8 8 8 8 8 8 8 8 8 8 E J.K.z | L.w.x.x.x.M.'.) N.O.P.Q.o.R.S.T.U.6 8 8 8 *.k & % &                     ",
"                * % V.l 8 8 8 8 8 8 8 8 8 8 W.X.R R Y.j.x.x.x.x.x.Z.) h `. +.+++@+#+#+#+$+%+m 8 8 8 &+*+% %                     ",
"              > % & =+8 8 8 8 8 8 8 8 8 m -+;+>+,+'+x.x.x.x.x.x.# A )+!+~+{+]+S.#+#+#+#+^+/+(+8 8 8 m _+& % >                   ",
"              & % * 7 8 8 8 8 8 8 8 8 :+<+[+5.}+w.x.x.x.x.x.x.x.w.; |+1+2+3+4+#+#+#+#+#+#+^+5+6+8 8 8 7+8+% &                   ",
"              * % 9+9 8 8 8 8 8 8 E F 0+a+b+I x.x.x.x.x.x.x.x.x.c+d+e+f+g+h+i+i+i+i+i+i+i+i+j+k+l+8 8 Y m+% &                   ",
"              % % n+8 8 8 8 8 8 O P o+p+'+x.x.x.x.x.x.x.x.x.x.x.q+l+7 r+s+s+s+s+s+s+s+s+s+s+s+t+6 8 8 8 u+& % *                 ",
"            > % & v+8 8 8 8 8 w+x+y+z+'+x.x.x.x.x.x.x.x.x.A+B+C+D+E+F+F+F+F+F+F+F+F+F+F+F+F+F+F+F+F+G+H+I+J+% *                 ",
"            * % & K+8 8 8 m =.L+M+j.x.x.x.x.x.x.x.w.s z+Y.N+O+N+P+) ) ) ) ) ) ) ) ) ) ) ) ) ) '.) Q+R+S+T+U+% >                 ",
"            > % & V+8 8 W+X+v.w.x.x.x.x.x.A+A+}+Y+Z+`+ @.@.@+@Y+J ) ) ) ) ) ) ) ) ) ) '.J ' - I @@k.#@$@~.%@% >                 ",
"            > % &@0 m W+*@=@'+x.x.j.A+z+Y+N+-@-@.@.@.@.@.@;@>@,@) ) ) ) ) ) ) ) ; 8.'@)@k.k.x.x.!@~@{@E 9 *+% *                 ",
"            > % ]@^@/@(@A+A+I _@:@+@ @ @.@.@.@.@.@.@.@.@<@+@,.'@) ) ) ) J '.Q+R+w.@@x.x.x.x.x.[@}@|@8 8 1@2@% *                 ",
"            * % 3@4@S++ 5@6@O+-@ @ @7@7@7@7@7@7@7@ @ @ @,+<@8@g '.; ' - I @@x.x.x.x.x.x.x.x.w.9@0@8 8 8 1@a@% *                 ",
"            * % b@c@d@e@f@g@g@g@g@h@i@j@j@j@j@k@k@l@m@n@.@.@o@p@)@# k.x.x.x.x.x.x.x.x.x.k.q@r@E 8 8 8 8 }.s@% *                 ",
"            > % & t@8 8 m u@v@v@w@x@y@z@A@B@C@D@E@F@^.G@.@-@k.I x.x.x.x.x.x.x.x.x.x.x.!@H@I@8 8 8 8 8 8 ~.J@% >                 ",
"            * % & K@8 8 L@M@N@O@P@Q@R@S@T@U@V@W@X@Y@Z@`@-@ #x.x.I x.x.x.x.x.x.x.x.x..#+#@#8 8 8 8 8 8 8 D * % >                 ",
"            * % & ##8 8 8 $#%#&#*#=#-#;#^+4+#+>#,#Y .@.@'#A+x.x.k.s x.x.x.x.x.x.x.)#!#8 8 8 8 8 8 8 8 8 a & % &                 ",
"              % % ~#7 8 8 8 {#]#^#/#^+#+#+#+T.(#W+_#.@>@j.x.x.x.x.x.I x.x.x.x.# :#<#E 8 8 8 8 8 8 8 8 8 [#& %                   ",
"              * % }#|#8 8 8 m 1#2##+#+#+#+^+3#4#5#,.-@# x.x.x.x.x.x.x.6#x.x.# 7#8#8 8 8 8 8 8 8 8 8 8 9#0#% %                   ",
"              * % & N 8 8 8 8 8 a#b##+#+#+c#d#1+e# @f#x.x.x.x.x.x.x.x.x.s w.g#h#8 8 8 8 8 8 8 8 8 8 8 }.* % >                   ",
"                % % i#6 8 8 8 8 j#k#T.#+l#m#:+n#.@o#A+x.x.x.x.x.x.x.x.x.p#q#E 8 8 8 8 8 8 8 8 8 8 8 m r#& % >                   ",
"                * % * }.8 8 8 8 8 6+s#t#u#j#v#w#;@A+x.x.x.x.x.x.x.x.!@x#y#E 8 8 8 8 8 8 8 8 8 8 8 8 l }#% %                     ",
"                > % & n+7 8 8 8 8 8 (+z#$#A#B#-@C#x.x.x.x.x.x.x.x.!@D#E#8 8 8 8 8 8 8 8 8 8 8 8 8 m F#& % %                     ",
"                  & % * G#8 8 8 8 8 *.H#8 I#J#K#x.x.x.x.x.x.x.x.L#M#N#8 8 8 8 8 8 8 8 8 8 8 8 8 8 |#O#% %                       ",
"                  > % % P#D 8 8 8 8 8 8 Q#R#Z+j.x.x.x.x.x.x.k.S#T#E 8 8 8 8 8 8 8 8 8 8 8 8 8 8 &.U#& % %                       ",
"                    * % & V#7 8 8 8 8 W#X#Y#'+x.x.x.x.x.x.@@Z#`#8 8 8 8 8 8 8 8 8 8 8 8 8 8 8 m  $& % *                         ",
"                      % % & .$m 8 8 E +$`+@$x.x.x.x.x.x.x.#$0@8 8 8 8 8 8 8 8 8 8 8 8 8 8 8 m $$%$% % %                         ",
"                      > % % & &$m 8 W+*$=$x.x.x.x.x.k.-$;$E 8 8 8 8 8 8 8 8 8 8 8 8 8 8 8 m 8 O#% % >                           ",
"                        > % % >$,${@'$)$!$x.x.x.x.!@~${$E 8 8 8 8 8 8 8 8 8 8 8 8 8 8 8 m ]$^$% % >                             ",
"                          * % % & /$J#x.x.x.x.x.!@($_$8 8 8 8 8 8 8 8 8 8 8 8 8 8 8 8 :$<$[$% % *                               ",
"                            % % % @ z+x.x.x.x.}$|$N#8 8 8 8 8 8 8 8 8 8 8 8 8 8 8 m 7+1$& % % *                                 ",
"                              * 2$Y.w.x.x..#3$T#E 8 8 8 8 8 8 8 8 8 8 8 8 8 8 m 7+4$]@& % % >                                   ",
"                                N+A+x.x.5$| 6$v 7$*.8 8 8 8 8 8 8 8 8 8 8 v D 8$9$& % % * *                                     ",
"                              6@x.x.x.x.0$% & * a$b$c$d$D }.1@1@9 e$d$f$g$h$* & % % % >                                         ",
"                              i$x.x.j.  & % % % % & & & |.j$k$l$m$n$* & & % % % % >                                             ",
"                            =$w.k.o$        * & > % % % % % % % % % % % % % * >                                                 ",
"                          p$'+w.                  * * * * * * * * * % * *                                                       ",
"                          @@A+                                                                                                  ",
"                        q$B+                                                                                                    ",
"                        r$                                                                                                      ",
"                                                                                                                                ",
"                                                                                                                                ",
"                                                                                                                                "};
