/* XPM */
static char * bitcoin32_xpm[] = {
"32 32 256 2",
"  	c None",
". 	c #9A0007",
"+ 	c #000101",
"@ 	c #000102",
"# 	c #000002",
"$ 	c #000001",
"% 	c #590004",
"& 	c #A80007",
"* 	c #3B2B01",
"= 	c #6B4D00",
"- 	c #8F6700",
"; 	c #9C7000",
"> 	c #906800",
", 	c #6F5000",
"' 	c #402E01",
") 	c #000202",
"! 	c #170102",
"~ 	c #610004",
"{ 	c #B40008",
"] 	c #694C01",
"^ 	c #DB9E00",
"/ 	c #CF9500",
"( 	c #CA9100",
"_ 	c #CB9200",
": 	c #C99000",
"< 	c #D59A00",
"[ 	c #6E2B02",
"} 	c #700005",
"| 	c #AF0008",
"1 	c #180102",
"2 	c #1E1601",
"3 	c #CB9300",
"4 	c #CD9500",
"5 	c #B07101",
"6 	c #3F0403",
"7 	c #840006",
"8 	c #A50008",
"9 	c #B45102",
"0 	c #281D01",
"a 	c #2A1E01",
"b 	c #DC9F00",
"c 	c #D79E00",
"d 	c #7A3802",
"e 	c #370003",
"f 	c #910006",
"g 	c #A40007",
"h 	c #B12905",
"i 	c #CC9A00",
"j 	c #DD9F00",
"k 	c #392A00",
"l 	c #181201",
"m 	c #CA9200",
"n 	c #C18500",
"o 	c #4C0D03",
"p 	c #4D0004",
"q 	c #970006",
"r 	c #A70F06",
"s 	c #9F8D2C",
"t 	c #CB9100",
"u 	c #231A01",
"v 	c #C08A00",
"w 	c #D59E00",
"x 	c #8F5001",
"y 	c #3C0004",
"z 	c #850006",
"A 	c #A60007",
"B 	c #CD8C00",
"C 	c #005ABB",
"D 	c #2C5A7E",
"E 	c #D89800",
"F 	c #CE9400",
"G 	c #4E3801",
"H 	c #CC9200",
"I 	c #CE9200",
"J 	c #581A02",
"K 	c #5B0004",
"L 	c #870006",
"M 	c #8A0006",
"N 	c #A30007",
"O 	c #D27300",
"P 	c #1B5FA2",
"Q 	c #004894",
"R 	c #003D86",
"S 	c #766B32",
"T 	c #624600",
"U 	c #C08B00",
"V 	c #CF9700",
"W 	c #A46601",
"X 	c #7F0006",
"Y 	c #930007",
"Z 	c #BE4800",
"` 	c #486A6C",
" .	c #004289",
"..	c #003F84",
"+.	c #003F83",
"@.	c #003A88",
"#.	c #B9890C",
"$.	c #D59900",
"%.	c #171201",
"&.	c #D99C00",
"*.	c #D59B00",
"=.	c #702D02",
"-.	c #670005",
";.	c #890006",
">.	c #830006",
",.	c #A72105",
"'.	c #BB9B06",
").	c #3A595F",
"!.	c #425C55",
"~.	c #425C54",
"{.	c #586441",
"].	c #D29B00",
"^.	c #D49E00",
"/.	c #2A2201",
"(.	c #4A3501",
"_.	c #CD9300",
":.	c #B37C00",
"<.	c #660804",
"[.	c #860006",
"}.	c #760005",
"|.	c #640005",
"1.	c #B11606",
"2.	c #AB1706",
"3.	c #AC1806",
"4.	c #AE1806",
"5.	c #AA1706",
"6.	c #9A1006",
"7.	c #5D2302",
"8.	c #644801",
"9.	c #D39E00",
"0.	c #924302",
"a.	c #770006",
"b.	c #880006",
"c.	c #680004",
"d.	c #5B0003",
"e.	c #4D0003",
"f.	c #520003",
"g.	c #650004",
"h.	c #A70007",
"i.	c #A50007",
"j.	c #9C0006",
"k.	c #920007",
"l.	c #810006",
"m.	c #BC7001",
"n.	c #765600",
"o.	c #624001",
"p.	c #810F05",
"q.	c #740005",
"r.	c #630004",
"s.	c #540003",
"t.	c #4B0004",
"u.	c #4E0004",
"v.	c #4F0004",
"w.	c #4F0003",
"x.	c #4E0003",
"y.	c #570003",
"z.	c #760004",
"A.	c #9F0007",
"B.	c #950007",
"C.	c #8B0006",
"D.	c #8C0F06",
"E.	c #CA8D00",
"F.	c #805C00",
"G.	c #643202",
"H.	c #AB6D00",
"I.	c #B06A00",
"J.	c #B76900",
"K.	c #AB6400",
"L.	c #9D6200",
"M.	c #95610E",
"N.	c #93641D",
"O.	c #956316",
"P.	c #A95C00",
"Q.	c #4C0003",
"R.	c #810007",
"S.	c #9C2C04",
"T.	c #D19D00",
"U.	c #725300",
"V.	c #453201",
"W.	c #CD9400",
"X.	c #A88721",
"Y.	c #0057D1",
"Z.	c #005DCF",
"`.	c #0054BA",
" +	c #004BA6",
".+	c #003D97",
"++	c #9F861F",
"@+	c #5C0C03",
"#+	c #6D0004",
"$+	c #B15902",
"%+	c #CE9A00",
"&+	c #573F01",
"*+	c #100C01",
"=+	c #CA9201",
"-+	c #997E23",
";+	c #003987",
">+	c #003E82",
",+	c #4B5C4D",
"'+	c #8E4600",
")+	c #870606",
"!+	c #C37F01",
"~+	c #B38100",
"{+	c #666539",
"]+	c #003F87",
"^+	c #104378",
"/+	c #D18D00",
"(+	c #941905",
"_+	c #CE9600",
":+	c #CE9500",
"<+	c #2D4E60",
"[+	c #C1950C",
"}+	c #601603",
"|+	c #7B0005",
"1+	c #800007",
"2+	c #A54003",
"3+	c #D19E00",
"4+	c #543D01",
"5+	c #B07F00",
"6+	c #D49600",
"7+	c #975602",
"8+	c #680005",
"9+	c #BB6C01",
"0+	c #CC9500",
"a+	c #C18B00",
"b+	c #0F0B02",
"c+	c #580003",
"d+	c #8B0F05",
"e+	c #C98C00",
"f+	c #DB9D00",
"g+	c #171101",
"h+	c #1A1302",
"i+	c #DA9F00",
"j+	c #752A02",
"k+	c #820006",
"l+	c #9A2904",
"m+	c #D19C00",
"n+	c #261C01",
"o+	c #010102",
"p+	c #220E02",
"q+	c #740006",
"r+	c #B05803",
"s+	c #CE9B00",
"t+	c #C48C00",
"u+	c #5D0004",
"v+	c #7C0006",
"w+	c #B87600",
"x+	c #D69A00",
"y+	c #D49900",
"z+	c #583F01",
"A+	c #201801",
"B+	c #563E01",
"C+	c #725200",
"D+	c #7D5A00",
"E+	c #735300",
"F+	c #594001",
"G+	c #800006",
"                                                                ",
"                                                                ",
"                                                                ",
"                                                .               ",
"                      + @ # # # # # @ $     % &                 ",
"                  @ # # * = - ; > , ' ) ! ~ {                   ",
"                @ # ] ^ / ( _ _ _ : < [ } | 1                   ",
"              @ 2 3 ( _ _ _ _ _ 4 5 6 7 8 9 0 #                 ",
"            @ a b _ _ _ _ _ _ c d e f g h i j k #               ",
"          @ l ^ _ _ _ _ _ m n o p q g r s t _ j u @             ",
"        $ # v _ _ _ _ _ w x y } z A g B C D E _ F # +           ",
"        @ G H _ _ _ ( I J K L 7 M N O P Q R S m m T #           ",
"        # U _ _ _ V W p X 7 7 7 Y Z `  ...+.@.#.m $.#           ",
"      $ %.&._ ( *.=.-.;.7 7 7 >.,.'.).!.!.!.~.{.].^./.#         ",
"      @ (._.3 :.<.L 7 7 [.L }.|.1.2.3.3.3.3.3.4.5.6.7.@         ",
"      @ 8.9.0.a.b.[.}.c.d.e.f.g.h.g g i.h.j.k.b.l.m.n.#         ",
"      # o.p.q.r.s.t.u.v.w.x.y.z.& A.B.C.l.>.7 D.E.( F.#         ",
"      + G.H.I.J.K.L.M.N.O.P.Q.z >.>.7 7 7 R.S.T._ ( U.#         ",
"      @ V.W.X.Y.Z.`. +.+++@+#+7 L 7 7 7 l.$+%+_ _ _ &+@         ",
"      @ *+j =+-+;+>+..,+'+K b.7 7 L 7 )+!+_ _ _ _ $.u @         ",
"        # ~+_ _.{+]+^+/+e.z 7 7 7 >.(+_+t _ _ _ _ ( #           ",
"        + ' :+_ E <+[+}+|+7 7 7 1+2+3+_ _ _ _ _ _ 4+@           ",
"          # 5+( _ 6+7+8+7 7 7 >.9+0+_ _ _ _ _ _ a+# @           ",
"          @ b+$._ :+c+b.7 7 d+e+( _ _ _ _ _ _ f+g+@             ",
"            @ h+i+j+7 7 k+l+m+_ _ _ _ _ _ _ f+n+@               ",
"              o+p+q+7 l.r+s+_ _ _ _ _ _ _ t+l @                 ",
"                u+z v+w+x+_ ( _ ( _ y+W.z+# @                   ",
"                L 7 @ # A+B+C+D+E+F+n+# @ @                     ",
"              G+;.      + @ # # $ @ @                           ",
"            >.                                                  ",
"                                                                ",
"                                                                "};
