/* XPM */
static char * bitcoin16_xpm[] = {
"16 16 110 2",
"  	c None",
". 	c #000000",
"+ 	c #0E0C00",
"@ 	c #554800",
"# 	c #8F7900",
"$ 	c #937C00",
"% 	c #947E00",
"& 	c #887300",
"* 	c #4E4200",
"= 	c #070600",
"- 	c #433900",
"; 	c #4B4600",
"> 	c #080500",
", 	c #2D2600",
"' 	c #786600",
") 	c #6A5A00",
"! 	c #6C5C00",
"~ 	c #8D7700",
"{ 	c #907A00",
"] 	c #282200",
"^ 	c #3A3100",
"/ 	c #534300",
"( 	c #817B00",
"_ 	c #151200",
": 	c #151100",
"< 	c #120F00",
"[ 	c #7B6800",
"} 	c #8E7900",
"| 	c #241F00",
"1 	c #0B0900",
"2 	c #957E00",
"3 	c #7D7500",
"4 	c #1D1800",
"5 	c #030400",
"6 	c #080A00",
"7 	c #433800",
"8 	c #8D7800",
"9 	c #030200",
"0 	c #524500",
"a 	c #0D0C00",
"b 	c #0D0E00",
"c 	c #0B0C00",
"d 	c #0C0A00",
"e 	c #564900",
"f 	c #483D00",
"g 	c #8B7600",
"h 	c #332B00",
"i 	c #0F1000",
"j 	c #0E0F00",
"k 	c #0D0D00",
"l 	c #161800",
"m 	c #201C00",
"n 	c #252000",
"o 	c #847000",
"p 	c #897500",
"q 	c #705F00",
"r 	c #251F00",
"s 	c #040600",
"t 	c #0C0C00",
"u 	c #1A1C00",
"v 	c #0B0B00",
"w 	c #867F00",
"x 	c #524300",
"y 	c #957F00",
"z 	c #352C00",
"A 	c #1A1500",
"B 	c #040500",
"C 	c #151700",
"D 	c #0D0900",
"E 	c #707000",
"F 	c #9E8600",
"G 	c #756300",
"H 	c #413700",
"I 	c #282300",
"J 	c #635700",
"K 	c #6D5D00",
"L 	c #4F4300",
"M 	c #836F00",
"N 	c #857100",
"O 	c #2E2700",
"P 	c #816E00",
"Q 	c #8A7500",
"R 	c #211B00",
"S 	c #3E3500",
"T 	c #080600",
"U 	c #917B00",
"V 	c #2B2500",
"W 	c #877200",
"X 	c #8C7700",
"Y 	c #372F00",
"Z 	c #635500",
"` 	c #675700",
" .	c #665600",
"..	c #645400",
"+.	c #736100",
"@.	c #8F7A00",
"#.	c #1D1900",
"$.	c #352D00",
"%.	c #0F0C00",
"&.	c #806D00",
"*.	c #6D5C00",
"=.	c #605100",
"-.	c #5D4F00",
";.	c #776500",
">.	c #0D0B00",
",.	c #1B1700",
"'.	c #615200",
").	c #998200",
"!.	c #443A00",
"~.	c #020200",
"          . . . . . .           ",
"      . + @ # $ % & * = .       ",
"    . - ; > , ' ) ! ~ { ] .     ",
"  . ^ / ( = . . _ : < [ } | .   ",
"  1 2 3 4 . . . 5 6 : 7 { 8 9   ",
". 0 ' a + . . . b c . . d e f . ",
". g } h . . i j k l . . . m n . ",
". 2 o p q r s t u v . . . w x . ",
". y o o o g z A B C . . D E F . ",
". & o o o G . . H h . . I J K . ",
". L M o N O . . P o Q 0 R g S   ",
"  T U o P . . V N o o M W g .   ",
"  . O X Y . . Z `  ...+.@.#.    ",
"    . $.%.. #.&.*.=.-.;.#..     ",
"      . >.,.'.).).' !.~..       ",
"          . . . . . .           "};
