/* XPM */
static char * bitcoin16_xpm[] = {
"16 16 112 2",
"  	c None",
". 	c #000002",
"+ 	c #211801",
"@ 	c #3D2C01",
"# 	c #342501",
"$ 	c #070702",
"% 	c #2C0102",
"& 	c #9E0007",
"* 	c #261C01",
"= 	c #C79000",
"- 	c #D49900",
"; 	c #CE9400",
"> 	c #D79B00",
", 	c #7C2F03",
"' 	c #AE0F07",
") 	c #000201",
"! 	c #332501",
"~ 	c #DEA000",
"{ 	c #CB9200",
"] 	c #CC9400",
"^ 	c #AD7401",
"/ 	c #560504",
"( 	c #A60007",
"_ 	c #C78402",
": 	c #BE8900",
"< 	c #070602",
"[ 	c #DD9F00",
"} 	c #D89E00",
"| 	c #7A3A02",
"1 	c #690006",
"2 	c #970007",
"3 	c #A65F22",
"4 	c #0046A7",
"5 	c #C99000",
"6 	c #795701",
"7 	c #5E4401",
"8 	c #CA9100",
"9 	c #BB8500",
"0 	c #6E0E04",
"a 	c #870006",
"b 	c #840006",
"c 	c #B74400",
"d 	c #1B597A",
"e 	c #185172",
"f 	c #3F5F59",
"g 	c #F0B700",
"h 	c #000102",
"i 	c #9C7600",
"j 	c #A05202",
"k 	c #7F0006",
"l 	c #7C0005",
"m 	c #6E0004",
"n 	c #5D0004",
"o 	c #AE0807",
"p 	c #B00802",
"q 	c #AF0802",
"r 	c #A30802",
"s 	c #9C1606",
"t 	c #2C1A01",
"u 	c #000001",
"v 	c #813902",
"w 	c #912C00",
"x 	c #7A2B00",
"y 	c #752D02",
"z 	c #772F06",
"A 	c #630004",
"B 	c #950007",
"C 	c #890006",
"D 	c #7E0006",
"E 	c #9A2C04",
"F 	c #D6A100",
"G 	c #312301",
"H 	c #795800",
"I 	c #777A54",
"J 	c #0047B3",
"K 	c #004394",
"L 	c #7A3301",
"M 	c #830006",
"N 	c #860006",
"O 	c #810006",
"P 	c #B05A02",
"Q 	c #CE9A00",
"R 	c #D99C00",
"S 	c #171102",
"T 	c #2E2201",
"U 	c #D89A00",
"V 	c #4B5C51",
"W 	c #89671E",
"X 	c #700005",
"Y 	c #860606",
"Z 	c #C37F01",
"` 	c #BA8600",
" .	c #9D7100",
"..	c #DEA200",
"+.	c #6E0B04",
"@.	c #901A05",
"#.	c #CE9600",
"$.	c #CB9100",
"%.	c #DFA000",
"&.	c #231A01",
"*.	c #753302",
"=.	c #A44103",
"-.	c #D19F00",
";.	c #DE9F00",
">.	c #322401",
",.	c #820006",
"'.	c #3D1902",
").	c #836000",
"!.	c #AA7B00",
"~.	c #9F7200",
"{.	c #654901",
"].	c #0A0702",
"                                ",
"                                ",
"          . + @ # $ % &         ",
"        * = - ; > , ' )         ",
"      ! ~ { ] ^ / ( _ : .       ",
"    < [ { } | 1 2 3 4 5 6       ",
"    7 8 9 0 a b c d e f g h     ",
"    i j k l m n o p q r s t     ",
"  u v w x y z A B C D E F G     ",
"    H I J K L M N O P Q R S     ",
"    T U V W X b Y Z { { ` .     ",
"    .  ...+.b @.#.$.{ %.&.      ",
"      . *.b =.-.{ 8 ;.>.        ",
"        ,.'.).!.~.{.].          ",
"      O       . .               ",
"                                "};
