/* XPM */
static char * bitcoin64_xpm[] = {
"64 64 336 2",
"  	c None",
". 	c #000000",
"+ 	c #0E0C00",
"@ 	c #1F1A00",
"# 	c #262000",
"$ 	c #282100",
"% 	c #272100",
"& 	c #252000",
"* 	c #181400",
"= 	c #060500",
"- 	c #050400",
"; 	c #322B00",
"> 	c #544800",
", 	c #826E00",
"' 	c #907B00",
") 	c #8D7800",
"! 	c #887300",
"~ 	c #867200",
"{ 	c #867100",
"] 	c #877300",
"^ 	c #8A7500",
"/ 	c #917B00",
"( 	c #8C7700",
"_ 	c #6E5D00",
": 	c #453B00",
"< 	c #211D00",
"[ 	c #302900",
"} 	c #736100",
"| 	c #8E7800",
"1 	c #847000",
"2 	c #887400",
"3 	c #8E7900",
"4 	c #514500",
"5 	c #131000",
"6 	c #473D00",
"7 	c #836F00",
"8 	c #8C7600",
"9 	c #736200",
"0 	c #3C3300",
"a 	c #655600",
"b 	c #554800",
"c 	c #4C4000",
"d 	c #433800",
"e 	c #897400",
"f 	c #705F00",
"g 	c #0F0D00",
"h 	c #766400",
"i 	c #5F5000",
"j 	c #0B0900",
"k 	c #4F4400",
"l 	c #1E1900",
"m 	c #6A5A00",
"n 	c #8B7600",
"o 	c #443A00",
"p 	c #2B2400",
"q 	c #100E00",
"r 	c #5D4F00",
"s 	c #010100",
"t 	c #141100",
"u 	c #605100",
"v 	c #8F7900",
"w 	c #857100",
"x 	c #756400",
"y 	c #040400",
"z 	c #4E4200",
"A 	c #4E4B00",
"B 	c #C4BE00",
"C 	c #030200",
"D 	c #070600",
"E 	c #877200",
"F 	c #584B00",
"G 	c #837000",
"H 	c #5E5000",
"I 	c #1D1800",
"J 	c #161500",
"K 	c #FFFB00",
"L 	c #373600",
"M 	c #504400",
"N 	c #0C0B00",
"O 	c #020200",
"P 	c #4D4100",
"Q 	c #151200",
"R 	c #675900",
"S 	c #5E4F00",
"T 	c #776500",
"U 	c #E6DD00",
"V 	c #726E00",
"W 	c #695900",
"X 	c #423800",
"Y 	c #5C4E00",
"Z 	c #0B0A00",
"` 	c #594B00",
" .	c #907A00",
"..	c #4C4100",
"+.	c #251F00",
"@.	c #999300",
"#.	c #B4AC00",
"$.	c #413700",
"%.	c #1A1600",
"&.	c #645500",
"*.	c #1B1700",
"=.	c #080700",
"-.	c #8A7600",
";.	c #2A2300",
">.	c #090900",
",.	c #BBB500",
"'.	c #FFF900",
").	c #343300",
"!.	c #756300",
"~.	c #342C00",
"{.	c #534600",
"].	c #372F00",
"^.	c #DCD300",
"/.	c #787400",
"(.	c #272200",
"_.	c #655500",
":.	c #2E2700",
"<.	c #4A3F00",
"[.	c #CBC400",
"}.	c #8D8800",
"|.	c #7A6700",
"1.	c #181500",
"2.	c #635400",
"3.	c #3A3100",
"4.	c #171400",
"5.	c #897500",
"6.	c #241E00",
"7.	c #312A00",
"8.	c #3D3400",
"9.	c #B4AE00",
"0.	c #ECE300",
"a.	c #B9B200",
"b.	c #0D0D00",
"c.	c #1B1C00",
"d.	c #100D00",
"e.	c #463B00",
"f.	c #282200",
"g.	c #010200",
"h.	c #262500",
"i.	c #D1C900",
"j.	c #746400",
"k.	c #090A00",
"l.	c #050500",
"m.	c #070500",
"n.	c #564800",
"o.	c #524600",
"p.	c #CAC400",
"q.	c #171300",
"r.	c #483D00",
"s.	c #181900",
"t.	c #101100",
"u.	c #121300",
"v.	c #8A7400",
"w.	c #8B7700",
"x.	c #020100",
"y.	c #8B8500",
"z.	c #6C5B00",
"A.	c #171800",
"B.	c #030400",
"C.	c #161800",
"D.	c #1C1E00",
"E.	c #3B3200",
"F.	c #403700",
"G.	c #181800",
"H.	c #070700",
"I.	c #0D0B00",
"J.	c #1F2100",
"K.	c #7F6C00",
"L.	c #675800",
"M.	c #5B4D00",
"N.	c #030300",
"O.	c #151700",
"P.	c #1B1D00",
"Q.	c #231E00",
"R.	c #6F5E00",
"S.	c #090800",
"T.	c #625300",
"U.	c #0F0F00",
"V.	c #131500",
"W.	c #111200",
"X.	c #4B4000",
"Y.	c #7E6B00",
"Z.	c #2C2500",
"`.	c #7D6A00",
" +	c #120F00",
".+	c #040500",
"++	c #6D5C00",
"@+	c #1D1E00",
"#+	c #060600",
"$+	c #171900",
"%+	c #161700",
"&+	c #131400",
"*+	c #362D00",
"=+	c #947D00",
"-+	c #6E5E00",
";+	c #191600",
">+	c #191B00",
",+	c #060700",
"'+	c #1F2200",
")+	c #141500",
"!+	c #6F5F00",
"~+	c #544700",
"{+	c #2D2700",
"]+	c #0C0D00",
"^+	c #191A00",
"/+	c #221D00",
"(+	c #A59E00",
"_+	c #332B00",
":+	c #796600",
"<+	c #2A2400",
"[+	c #0B0C00",
"}+	c #101000",
"|+	c #080800",
"1+	c #716000",
"2+	c #F9F000",
"3+	c #484500",
"4+	c #5F5100",
"5+	c #161300",
"6+	c #0F1000",
"7+	c #0A0A00",
"8+	c #141600",
"9+	c #151600",
"0+	c #3F3600",
"a+	c #FFFF00",
"b+	c #746300",
"c+	c #231D00",
"d+	c #0D0E00",
"e+	c #1E2000",
"f+	c #363400",
"g+	c #D3CB00",
"h+	c #7C6A00",
"i+	c #040300",
"j+	c #0A0800",
"k+	c #4E4100",
"l+	c #A8A300",
"m+	c #CDC500",
"n+	c #858000",
"o+	c #1C1700",
"p+	c #826F00",
"q+	c #8F7A00",
"r+	c #0E0F00",
"s+	c #CFC700",
"t+	c #C4BC00",
"u+	c #444200",
"v+	c #816E00",
"w+	c #1D1900",
"x+	c #0D0F00",
"y+	c #5A4C00",
"z+	c #362E00",
"A+	c #6B5A00",
"B+	c #211C00",
"C+	c #0C0C00",
"D+	c #030100",
"E+	c #C2BB00",
"F+	c #FDF300",
"G+	c #6D5D00",
"H+	c #927C00",
"I+	c #352D00",
"J+	c #2F2800",
"K+	c #1D1F00",
"L+	c #F0E700",
"M+	c #EAE100",
"N+	c #584A00",
"O+	c #695A00",
"P+	c #3D3300",
"Q+	c #C9C300",
"R+	c #454400",
"S+	c #4A3E00",
"T+	c #3F3500",
"U+	c #4D4200",
"V+	c #726200",
"W+	c #878100",
"X+	c #463C00",
"Y+	c #493E00",
"Z+	c #444100",
"`+	c #222100",
" @	c #423900",
".@	c #574B00",
"+@	c #776400",
"@@	c #494600",
"#@	c #8C7800",
"$@	c #7B6900",
"%@	c #090700",
"&@	c #836E00",
"*@	c #201C00",
"=@	c #857000",
"-@	c #473C00",
";@	c #665700",
">@	c #0C0A00",
",@	c #191500",
"'@	c #766500",
")@	c #7B6800",
"!@	c #615200",
"~@	c #726100",
"{@	c #7C6900",
"]@	c #312900",
"^@	c #796700",
"/@	c #8D7700",
"(@	c #2C2600",
"_@	c #564900",
":@	c #060400",
"<@	c #675700",
"[@	c #221C00",
"}@	c #403600",
"|@	c #937D00",
"1@	c #0F0E00",
"2@	c #110F00",
"3@	c #0A0900",
"4@	c #4A4000",
"5@	c #937C00",
"6@	c #3E3400",
"7@	c #121000",
"8@	c #9C8500",
"9@	c #574900",
"0@	c #574A00",
"a@	c #010000",
"b@	c #7E6A00",
"c@	c #907900",
"d@	c #594C00",
"e@	c #443900",
"f@	c #393000",
"g@	c #524500",
"h@	c #957F00",
"i@	c #110E00",
"j@	c #6C5C00",
"k@	c #2D2600",
"l@	c #746200",
"m@	c #786600",
"n@	c #605200",
"o@	c #726000",
"p@	c #0D0C00",
"q@	c #201B00",
"r@	c #433A00",
"s@	c #615300",
"t@	c #302800",
"u@	c #927D00",
"                                                  . . . . . . . . . . . . .                                                     ",
"                                            . . . . . . . . . . . . . . . . . . . .                                             ",
"                                      . . . . . . . . . . . . . . . . . . . . . . . . . .                                       ",
"                                  . . . . . . . . . . . + @ # $ % & * = . . . . . . . . . . .                                   ",
"                              . . . . . . . . - ; > , ' ) ! ~ { ~ ] ^ / ( _ : < . . . . . . . .                                 ",
"                            . . . . . . . [ } | { 1 1 1 1 1 1 1 1 1 1 1 1 1 1 2 3 4 5 . . . . . . .                             ",
"                        . . . . . . . 6 ( 1 1 1 1 1 1 1 1 1 1 1 1 1 1 1 1 1 1 1 1 7 8 9 @ . . . . . .                           ",
"                      . . . . . . 0 a b c d 1 e 1 1 1 1 1 1 1 1 1 1 1 1 1 1 1 1 1 1 1 1 ^ f g . . . . .                         ",
"                    . . . . . + h i . . . j k l m n 1 1 1 1 1 1 1 1 1 1 1 1 1 1 1 1 1 1 1 1 3 o . . . . . .                     ",
"                  . . . . . p ( | q . . . r s . . t u v 1 1 1 1 1 1 1 1 1 1 1 1 1 1 1 1 1 1 1 w x y . . . . .                   ",
"                . . . . . z e 1 m . A B C u . . . . . D > v 1 1 1 E r F _ ] n 1 1 1 1 1 1 1 1 1 G ^ g . . . . .                 ",
"              . . . . . H { 1 ^ I J K L M N . . . . . . . O P 8 w z . . . . Q R | 7 1 1 1 1 1 1 1 1 | Q . . . .                 ",
"            . . . . . S 1 1 1 T . U V . W . . . . . . . . . . . X Y 5 . . . . . Z `  .1 1 1 1 1 1 1 1 ) q . . . .               ",
"            . . . . ..w 1 1 ~ +.@.#.. $.%.. . . . . . . . . . . . . 0 &.*.. . . . . =.&.w 1 1 1 1 1 1 1 -.j . . . .             ",
"          . . . . ;.^ 1 1 1 w >.,.'.).!.. . . . . . . . . . . . . . . . ~.&.+.. . . . . {.! 1 1 1 1 1 1 1 , . . . . .           ",
"        . . . . =.8 1 1 1 w ].. ^./.;.(.. . . . . . . . . . . . . . . . . . % _.:.. . . . <.w 1 1 1 1 1 1 7 S . . . .           ",
"        . . . . } 1 1 1 1 8 . [.}.. |.. . . . . . . . . . . . . . . . . . . . . 1.2.3.. . 4.e 1 1 1 1 1 1 1 5.6.. . . .         ",
"      . . . . 7.~ 1 1 1 G 8.9.0.a.I ~.. . . . . . . . . . . . . . . . . . b.c.. . . d.F e.f.~ 1 1 1 1 1 1 1 1 e . . . .         ",
"      . . . . -.1 1 1 1  .g.h.i.. j.. . . . . . . . . . . . . . . . . k.      l.. . . . m.n.| 1 1 1 1 1 1 1 1 1 : . . . .       ",
"    . . . . 8.1 1 1 1 7 o.. p.. q.r.. . . . . . . . . . . . . . . . s.  t..   u.. . . . . . . : v.w 1 1 1 1 1 1 3 . . . .       ",
"    . . . . w.1 1 1 1 v x.y.. . z.. . . . . . . . . . . . . . . . A.  B.. . C.D.. . . . . . . . . E.1 ~ 1 1 1 1 7 F.. . . .     ",
"    . . . f.~ 1 1 1 1 &.G.H.. I.F . . . . . . . . . . . . . . . H.  l.. . . u.J.. . . . . . . . . . . p K.] 1 1 1 w . . . .     ",
"  . . . . L.1 1 1 1 ^ q.. . . M.N.. . . . . . . . . . . . . . .   O.. . . . A.P.. . . . . . . . . . . . . Q.R.n 1 e *.. . .     ",
"  . . . s  .1 1 1 1 v S.. . O T.. . . . . . . . . . . . . k.U.V.  N.. . . .   W.. . . . . . . . . . . . . . . X.Y.7 b . . . .   ",
"  . . . Z.~ 1 1 1 1 1 `.. . z  +. . . . . . . . . . y J.              >.. s   .+. . . . . . . . . . . . . . . ++- ( 1 . . . .   ",
"  . . . k 1 1 1 1 1 1 G F . R.. . . . . . . . . . u.  @+#+. . $+%+x.&+  J.A.  . . . . . . . . . . . . . . . *+@ . & =+S.. . .   ",
". . . . h 1 1 1 1 1 1 1 ^ -+;+. . . . . . . . . >+  ,+. . . . '+)+. . s     H.. . . . . . . . . . . . . . . !+. . . ~+{+. . .   ",
". . . . | 1 1 1 1 1 1 1 1 1 ++Q.. . . . . . . ]+  #+. . . . . ^+C.. . B.    J.. . . . . . . . . . . . . . /+$ (+. . _+o . . .   ",
". . . D / 1 1 1 1 1 1 1 1 1 1 2 :+<+. . . . . .     [+. . . . }+  . t.  C..   |+. . . . . . . . . . . . . 1+. 2+3+. 1 4+. . . s ",
". . . 5+n 1 1 1 1 1 1 1 1 1 1 1 1 ~ w *+. . . . . 6+    A.b.7+8+      k.. . 9+  . . . . . . . . . . . . 4.0+S.a+. p ~ b+. . . . ",
". . . c+] 1 1 1 1 1 1 1 1 1 1 1 1 1 1 1 e o . . . . . d+e+        e+. . . . N.  g.. . . . . . . . . . . W . f+g+. h+1 `.. . . s ",
". . . # ] 1 1 1 1 1 1 1 1 1 1 1 1 1 1 1 1 7 ) X.i+. . . . . . . H.  y . . . .   >.. . . . . . . . . . j+k+l+m+n+o+e 1 p+. . . s ",
". . . # ] 1 1 1 1 1 1 1 1 1 1 1 1 1 1 1 1 1 1 1 q+M.Z . . . . . . A.  N.. . .   r+. . . . . . . . . . Y . s+t+u+R.1 1 v+. . . . ",
". . . w+! 1 1 1 1 1 1 1 1 1 1 1 1 1 1 1 1 1 1 1 E <+: a q.. . . . . c.  x+. .   r+. . . . . . . . . N.y+. K l.* 8 1 1 h+. . . s ",
". . . t n 1 1 1 1 1 1 1 1 1 1 1 1 1 1 1 1 1 1 1 w . . . z+A+B+. . . . C+    )+  >.. . . . . . . . . 4 D+E+F+. 4+1 1 1 G+. . . . ",
". . . N.H+1 1 1 1 1 1 1 1 1 1 1 1 1 1 1 1 1 1 1 I+. . . . . Z.m J+. . . . ]+K+  s . . . . . . . . . W . L+M+. v 1 1 1 N+. . .   ",
". . . . n 1 1 1 1 1 1 1 1 1 1 1 1 1 1 1 1 1 1 | . . . . . . . . Q.O+P+. . . . . . . . . . . . . . X * . Q+R+S+7 1 1 7 T+. . .   ",
". . . . O+1 1 1 1 1 1 1 1 1 1 1 1 1 1 1 1 1 7 X . . . . . . . . . . U+E 8.. . . . . . . . . . . . V+. x.W+. v 1 1 1 2 /+. . .   ",
"  . . . X+1 1 1 1 1 1 1 1 1 1 1 1 1 1 1 1 1 v O . . . . . . . . . . ^ 1 1 ( Y+s . . . . . . . . J+$ . Z+`+ @7 1 1 1 v O . . .   ",
"  . . . /+2 1 1 1 1 1 1 1 1 1 1 1 1 1 1 1 G ~+. . . . . . . . . . ~.w 1 1 1 7 ( .@D . . . . . . +@. . @@. #@1 1 1 1 $@. . . .   ",
"  . . . . v 1 1 1 1 1 1 1 1 1 1 1 1 1 1 1 v %@. . . . . . . . . . &@1 1 1 1 1 1 1 ) Y  +. . . *@I+. . l.z+=@1 1 1 7 -@. . .     ",
"  . . . . b G 1 1 1 1 1 1 1 1 1 1 1 1 1 1 T.. . . . . . . . . . +.] 1 1 1 1 1 1 1 1 1 ( ;@@ . !+. . . . 1 1 1 1 1 v >@. . .     ",
"    . . . ,@^ 1 1 1 1 1 1 1 1 1 1 1 1 1 8 5 . . . . . . . . . . '@1 1 1 1 1 1 1 1 1 1 1 1 2 )@!@f.:.I+~+~ 1 1 1 1 ~@. . . .     ",
"    . . . . {@1 1 1 1 1 1 1 1 1 1 1 1 1 f . . . . . . . . . . ;+e 1 1 1 1 1 1 1 1 1 1 1 1 1 1 w { w 1 1 1 1 1 1 { ]@. . .       ",
"    . . . . % ! 1 1 1 1 1 1 1 1 1 1 1 ! B+. . . . . . . . . . ;@1 1 1 1 1 1 1 1 1 1 1 1 1 1 1 1 1 1 1 1 1 1 1 1 7 . . . .       ",
"      . . . . ^@1 1 1 1 1 1 1 1 1 1 1 K.. . . . . . . . . . + /@1 1 1 1 1 1 1 1 1 1 1 1 1 1 1 1 1 1 1 1 1 1 1 ~ <+. . . .       ",
"      . . . . 1.8 1 1 1 1 1 1 1 1 1 ~ (@. . . . . . . . . . ~+1 1 1 1 1 1 1 1 1 1 1 1 1 1 1 1 1 1 1 1 1 1 1 1 x . . . .         ",
"        . . . . _@7 1 1 1 1 1 1 1 1 e . . . . . . . . . . :@' 1 1 1 1 1 1 1 1 1 1 1 1 1 1 1 1 1 1 1 1 1 1 1 ) I.. . . .         ",
"          . . . . , 1 1 1 1 1 1 1 1 E.. . . . . . . . . . <.1 1 1 1 1 1 1 1 1 1 1 1 1 1 1 1 1 1 1 1 1 1 1 ~ E.. . . .           ",
"          . . . . + v 1 1 1 1 1 1 ) . . . . . . . . . . . ) | / / n / 7 ! n 1 3  .1 1 H+/ | 1 1 1 1 1 1 7 <@. . . .             ",
"            . . . . [@) 1 1 1 1 7 X+. . . . . . . . . . }@] _+j + ..i+|@` }@_ 1@2@b ] . * 3@e 1 1 1 1 7 )@. . . . .             ",
"              . . . . Z.( 1 1 1 q+i+. . . . . . . . . . w 1 2 4@M.5@%@2.6@c 7@! =+>@ .4.8@@ , 1 1 1 7 K.C . . . .               ",
"              . . . . . <+( 1 1 9@. . . . . . . . . . p ~ 1 1 6 0@v S.!@0 U+j+3 2 *.v a@& t /@1 1 7 b@i+. . . .                 ",
"                . . . . . w+( ) S.. . . . . . . . . . Y.1 1 1 X+_@c@i+H+d@e@E.f@g@,@( 7@h@i@n 1 1 j@. . . . .                   ",
"                  . . . . . 3@Y.k@. . . . . . . . . B+2 1 1 1 l@m@] n@! ^@o@^ r {.2 =@&.E <@K.( e.. . . . .                     ",
"                    . . . . . . z f D . . . . . . . R.1 1 1 1 1 1 1 7 1 1 1 1 1 1 1 1 G 1 G , ,@. . . . .                       ",
"                      . . . . . . p@h o.N.. . . . 5+n 1 1 1 1 1 1 1 1 1 1 1 1 1 1 1 1 7 | $.. . . . . .                         ",
"                          . . . . . . %.f ;@q@. . r 1 1 1 1 1 1 1 1 1 1 1 1 1 1 1 ] ^ e@. . . . . . .                           ",
"                            . . . . . . . =.r@7 a n 1 1 1 1 1 1 1 1 1 1 1 1 e v s@Q.. . . . . . .                               ",
"                                . . . . . . . . D t@z W ~ q+u@=+=+/ /@|.i 8.@ . . . . . . . . .                                 ",
"                                  . . . . . . . . . . . . . a@D = . . . . . . . . . . . . .                                     ",
"                                        . . . . . . . . . . . . . . . . . . . . . . . .                                         ",
"                                              . . . . . . . . . . . . . . . . . .                                               ",
"                                                      . . . . . . . . . .                                                       "};
